<?xml version="1.0" encoding="UTF-8" standalone="no"?>
<svg
   xmlns:dc="http://purl.org/dc/elements/1.1/"
   xmlns:cc="http://creativecommons.org/ns#"
   xmlns:rdf="http://www.w3.org/1999/02/22-rdf-syntax-ns#"
   xmlns:svg="http://www.w3.org/2000/svg"
   xmlns="http://www.w3.org/2000/svg"
   xmlns:sodipodi="http://sodipodi.sourceforge.net/DTD/sodipodi-0.dtd"
   xmlns:inkscape="http://www.inkscape.org/namespaces/inkscape"
   inkscape:export-ydpi="96.000099"
   inkscape:export-xdpi="96.000099"
   inkscape:export-filename="/home/bitbadger/GameProjects/InfectABounce/Sprites/StartButton.png"
   inkscape:version="1.0 (4035a4fb49, 2020-05-01)"
   sodipodi:docname="StartButton.svg"
   id="svg8"
   version="1.1"
   viewBox="0 0 300 100"
   height="100"
   width="300">
  <defs
     id="defs2">
    <rect
       id="rect853"
       height="96"
       width="224"
       y="0"
       x="32" />
    <rect
       id="rect847"
       height="64"
       width="160"
       y="32"
       x="32" />
  </defs>
  <sodipodi:namedview
     inkscape:window-maximized="1"
     inkscape:window-y="0"
     inkscape:window-x="1366"
     inkscape:window-height="1060"
     inkscape:window-width="1920"
     units="px"
     showgrid="true"
     inkscape:document-rotation="0"
     inkscape:current-layer="layer1"
     inkscape:document-units="px"
     inkscape:cy="67.290658"
     inkscape:cx="153.34967"
     inkscape:zoom="4.5087452"
     inkscape:pageshadow="2"
     inkscape:pageopacity="0.0"
     borderopacity="1.0"
     bordercolor="#666666"
     pagecolor="#ffffff"
     id="base">
    <inkscape:grid
       dotted="false"
       id="grid833"
       type="xygrid" />
  </sodipodi:namedview>
  <metadata
     id="metadata5">
    <rdf:RDF>
      <cc:Work
         rdf:about="">
        <dc:format>image/svg+xml</dc:format>
        <dc:type
           rdf:resource="http://purl.org/dc/dcmitype/StillImage" />
        <dc:title></dc:title>
      </cc:Work>
    </rdf:RDF>
  </metadata>
  <g
     id="layer1"
     inkscape:groupmode="layer"
     inkscape:label="Layer 1">
    <text
       style="font-style:normal;font-weight:normal;font-size:40px;line-height:1.25;font-family:sans-serif;letter-spacing:0px;word-spacing:0px;white-space:pre;shape-inside:url(#rect847);fill:#000000;fill-opacity:1;stroke:none;"
       id="text845"
       xml:space="preserve"><tspan
         style="visibility:hidden"
         x="32"
         y="171.49997"><tspan
           dx="0 54.166645 33.458324 52.291641 35.083313"
           style="font-size:85.3333px;fill:#2b0000">Start</tspan></tspan></text>
    <g
       transform="translate(25.231726,11.117169)"
       style="font-style:normal;font-weight:normal;font-size:40px;line-height:1.25;font-family:sans-serif;letter-spacing:0px;word-spacing:0px;white-space:pre;shape-inside:url(#rect853);fill:#000000;fill-opacity:1;stroke:none"
       id="text851"
       aria-label="Start">
      <path
         id="path857"
         style="font-size:74.6667px;fill:#550000"
         d="m 71.958352,13.416673 v 7.182295 q -4.19271,-2.005209 -7.911462,-2.989585 -3.718751,-0.984375 -7.182295,-0.984375 -6.015628,0 -9.296879,2.333334 -3.244793,2.333335 -3.244793,6.63542 0,3.609377 2.151042,5.468753 2.187501,1.822917 8.239587,2.953126 l 4.447919,0.911459 q 8.239588,1.567709 12.140631,5.541669 3.937502,3.937502 3.937502,10.572922 0,7.911462 -5.322919,11.994797 -5.286461,4.083336 -15.531258,4.083336 -3.864585,0 -8.239587,-0.875001 -4.338544,-0.875 -9.005213,-2.588543 v -7.583337 q 4.484378,2.515627 8.786463,3.791669 4.302085,1.276042 8.458337,1.276042 6.307295,0 9.73438,-2.479168 3.427085,-2.479168 3.427085,-7.07292 0,-4.010418 -2.479168,-6.270836 -2.442709,-2.260418 -8.057295,-3.390627 l -4.484378,-0.875 q -8.239587,-1.640626 -11.92188,-5.140628 -3.682294,-3.500001 -3.682294,-9.734379 0,-7.218754 5.067711,-11.375006 5.104169,-4.156252 14.036465,-4.156252 3.828127,0 7.802087,0.692709 3.97396,0.692709 8.130212,2.078126 z" />
      <path
         id="path859"
         style="font-size:74.6667px;fill:#550000"
         d="m 93.067736,13.635423 v 11.593756 h 13.817714 v 5.213544 H 93.067736 V 52.6094 q 0,4.994794 1.348959,6.41667 1.385418,1.421875 5.578128,1.421875 h 6.890627 v 5.614587 h -6.890627 q -7.765629,0 -10.718755,-2.88021 Q 86.322942,60.265654 86.322942,52.6094 V 30.442723 h -4.921878 v -5.213544 h 4.921878 V 13.635423 Z" />
      <path
         id="path861"
         style="font-size:74.6667px;fill:#550000"
         d="m 134.26568,45.53648 q -8.13022,0 -11.26564,1.859376 -3.13541,1.859376 -3.13541,6.343753 0,3.572918 2.33333,5.687503 2.36979,2.078126 6.41667,2.078126 5.57813,0 8.9323,-3.937502 3.39062,-3.97396 3.39062,-10.536464 V 45.53648 Z m 13.38021,-2.770835 v 23.296887 h -6.70834 v -6.19792 q -2.29687,3.718752 -5.72396,5.505211 -3.42708,1.750001 -8.38542,1.750001 -6.27083,0 -9.98959,-3.500002 -3.68229,-3.53646 -3.68229,-9.442713 0,-6.890628 4.59375,-10.39063 4.63021,-3.500001 13.78126,-3.500001 h 9.40625 v -0.656251 q 0,-4.63021 -3.0625,-7.145837 -3.02604,-2.552084 -8.53125,-2.552084 -3.5,0 -6.81771,0.838542 -3.31771,0.838542 -6.38021,2.515626 v -6.197919 q 3.68229,-1.421876 7.14583,-2.114585 3.46355,-0.729167 6.7448,-0.729167 8.85938,0 13.23438,4.593752 4.375,4.593753 4.375,13.92709 z" />
      <path
         id="path863"
         style="font-size:74.6667px;fill:#550000"
         d="m 185.12507,31.500015 q -1.13021,-0.65625 -2.47917,-0.947917 -1.3125,-0.328125 -2.91667,-0.328125 -5.6875,0 -8.75,3.718752 -3.02604,3.682293 -3.02604,10.60938 v 21.510427 h -6.7448 V 25.229179 h 6.7448 v 6.343753 q 2.11458,-3.718752 5.50521,-5.505211 3.39062,-1.822918 8.23959,-1.822918 0.6927,0 1.53125,0.109375 0.83854,0.07292 1.85937,0.255209 z" />
      <path
         id="path865"
         style="font-size:74.6667px;fill:#550000"
         d="m 198.79696,13.635423 v 11.593756 h 13.81771 v 5.213544 H 198.79696 V 52.6094 q 0,4.994794 1.34896,6.41667 1.38541,1.421875 5.57812,1.421875 h 6.89063 v 5.614587 h -6.89063 q -7.76562,0 -10.71875,-2.88021 -2.95313,-2.916668 -2.95313,-10.572922 V 30.442723 h -4.92187 v -5.213544 h 4.92187 V 13.635423 Z" />
    </g>
  </g>
</svg>
